<?xml version="1.0" encoding="utf-8"?>
<!-- Generator: Adobe Illustrator 20.1.0, SVG Export Plug-In . SVG Version: 6.00 Build 0)  -->
<svg version="1.1" id="Layer_1" xmlns="http://www.w3.org/2000/svg" xmlns:xlink="http://www.w3.org/1999/xlink" x="0px" y="0px"
	 viewBox="0 0 47 47" style="enable-background:new 0 0 47 47;" xml:space="preserve">
<style type="text/css">
	.st0{fill:#7FC6E5;}
	.st1{fill:#F7976A;}
	.st2{fill:#E5C5AA;}
	.st3{fill:#43AFDC;}
	.st4{fill:#E42A8E;}
	.st5{fill:#F15E62;}
	.st6{fill:#F79B6E;}
	.st7{fill:#FFFFFF;stroke:#FFFFFF;stroke-miterlimit:10;}
</style>
<g>
	<path class="st0" d="M38.4,15.3l5.9-3.4c-4-7-11.6-11.7-20.2-11.7V7C30.2,7,35.5,10.3,38.4,15.3z"/>
	<path class="st1" d="M7.5,23.5c0-3,0.8-5.8,2.2-8.3l-5.9-3.4c-2,3.4-3.1,7.4-3.1,11.7c0,4.3,1.1,8.2,3.1,11.7l5.9-3.4
		C8.3,29.4,7.5,26.5,7.5,23.5z"/>
	<path class="st2" d="M24.1,7V0.2c-8.6,0-16.2,4.7-20.2,11.7l5.9,3.4C12.6,10.3,17.9,7,24.1,7z"/>
	<path class="st3" d="M44.3,11.9l-5.9,3.4c1.4,2.4,2.2,5.3,2.2,8.3c0,3-0.8,5.8-2.2,8.3l5.9,3.4c2-3.4,3.1-7.4,3.1-11.7
		C47.4,19.3,46.3,15.3,44.3,11.9z"/>
	<path class="st4" d="M24.1,40.1v6.8c8.6,0,16.2-4.7,20.2-11.7l-5.9-3.4C35.5,36.7,30.2,40.1,24.1,40.1z"/>
	<path class="st5" d="M9.7,31.8l-5.9,3.4c4,7,11.6,11.7,20.2,11.7v-6.8C17.9,40.1,12.6,36.7,9.7,31.8z"/>
	<polygon class="st5" points="16.8,27.8 9.9,31.7 24.1,39.9 24.1,32 	"/>
	<polygon class="st1" points="16.8,19.3 9.9,15.4 9.9,31.7 16.8,27.8 	"/>
	<polygon class="st4" points="24.1,32 24.1,39.9 38.2,31.7 31.4,27.8 	"/>
	<polygon class="st3" points="31.4,27.8 38.2,31.7 38.2,15.4 31.4,19.3 	"/>
	<polygon class="st0" points="31.4,19.3 38.2,15.4 24.1,7.2 24.1,15.1 	"/>
	<polygon class="st2" points="9.9,15.4 16.8,19.3 16.8,19.3 24.1,15.1 24.1,7.2 	"/>
	<path class="st6" d="M9.9,31.8"/>
</g>
</svg>
